<svg width="14" height="14" viewBox="0 0 16 16" fill="none" xmlns="http://www.w3.org/2000/svg">
<g id="icon container">
<path id="&#244;&#128;&#129;&#163;" d="M8.0036 15C7.04289 15 6.13982 14.8151 5.29439 14.4452C4.45377 14.0801 3.71161 13.5757 3.06794 12.9321C2.42426 12.2884 1.91748 11.5462 1.54761 10.7056C1.18254 9.86018 1 8.95711 1 7.9964C1 7.04049 1.18254 6.13982 1.54761 5.29439C1.91268 4.44896 2.41705 3.70441 3.06073 3.06073C3.70921 2.41705 4.45377 1.91268 5.29439 1.54761C6.13982 1.18254 7.04049 1 7.9964 1C8.95231 1 9.85298 1.18254 10.6984 1.54761C11.5438 1.91268 12.2884 2.41705 12.9321 3.06073C13.5757 3.70441 14.0801 4.44896 14.4452 5.29439C14.8151 6.13982 15 7.04049 15 7.9964C15 8.95711 14.8175 9.86018 14.4524 10.7056C14.0873 11.5462 13.5829 12.2884 12.9393 12.9321C12.2956 13.5757 11.551 14.0801 10.7056 14.4452C9.86018 14.8151 8.95951 15 8.0036 15ZM7.24704 11.3469C7.49202 11.3469 7.69137 11.2292 7.84508 10.9938L11.0371 5.9861C11.0851 5.91405 11.1259 5.8396 11.1595 5.76274C11.198 5.68108 11.2172 5.60182 11.2172 5.52496C11.2172 5.35684 11.1523 5.22234 11.0226 5.12146C10.8978 5.01578 10.756 4.96294 10.5975 4.96294C10.391 4.96294 10.218 5.07583 10.0787 5.3016L7.21822 9.8914L5.86361 8.16212C5.78195 8.05164 5.69789 7.97478 5.61143 7.93155C5.52976 7.88832 5.4385 7.8667 5.33762 7.8667C5.1695 7.8667 5.02779 7.92675 4.91251 8.04683C4.80202 8.16212 4.74678 8.30383 4.74678 8.47195C4.74678 8.63047 4.80683 8.78418 4.92692 8.93309L6.61297 11.001C6.70424 11.1163 6.80031 11.2028 6.90118 11.2604C7.00206 11.3181 7.11734 11.3469 7.24704 11.3469Z" fill="currentColor"/>
</g>
</svg>
