<svg width="14" height="14" viewBox="0 0 13.2822 13.2891" fill="none" xmlns="http://www.w3.org/2000/svg">
<path id="&#244;&#128;&#129;&#162;" d="M6.64453 13.2891C5.72396 13.2891 4.86263 13.1159 4.06055 12.7695C3.26302 12.4277 2.55892 11.9515 1.94824 11.3408C1.33757 10.7301 0.859049 10.0238 0.512695 9.22168C0.170898 8.4196 0 7.56055 0 6.64453C0 5.72852 0.170898 4.86947 0.512695 4.06738C0.859049 3.26074 1.33757 2.55436 1.94824 1.94824C2.55892 1.33757 3.26302 0.861328 4.06055 0.519531C4.86263 0.173177 5.72396 0 6.64453 0C7.56055 0 8.4196 0.173177 9.22168 0.519531C10.0238 0.861328 10.7279 1.33757 11.334 1.94824C11.9447 2.55436 12.4209 3.26074 12.7627 4.06738C13.109 4.86947 13.2822 5.72852 13.2822 6.64453C13.2822 7.56055 13.109 8.4196 12.7627 9.22168C12.4209 10.0238 11.9447 10.7301 11.334 11.3408C10.7279 11.9515 10.0238 12.4277 9.22168 12.7695C8.4196 13.1159 7.56055 13.2891 6.64453 13.2891ZM6.64453 12.0723C7.39193 12.0723 8.09375 11.931 8.75 11.6484C9.40625 11.3659 9.98275 10.9762 10.4795 10.4795C10.9808 9.98275 11.3704 9.40853 11.6484 8.75684C11.9264 8.10059 12.0654 7.39648 12.0654 6.64453C12.0654 5.89258 11.9264 5.19076 11.6484 4.53906C11.3704 3.88281 10.9808 3.30632 10.4795 2.80957C9.98275 2.31283 9.40625 1.92318 8.75 1.64062C8.09375 1.35807 7.39193 1.2168 6.64453 1.2168C5.89258 1.2168 5.18848 1.35807 4.53223 1.64062C3.88053 1.92318 3.30404 2.31283 2.80273 2.80957C2.30599 3.30632 1.91634 3.88281 1.63379 4.53906C1.35579 5.19076 1.2168 5.89258 1.2168 6.64453C1.2168 7.39648 1.35579 8.10059 1.63379 8.75684C1.91634 9.40853 2.30599 9.98275 2.80273 10.4795C3.30404 10.9762 3.88053 11.3659 4.53223 11.6484C5.18848 11.931 5.89258 12.0723 6.64453 12.0723ZM5.93359 9.7207C5.81966 9.7207 5.71712 9.69564 5.62598 9.64551C5.53483 9.59538 5.44596 9.51335 5.35938 9.39941L3.80762 7.50586C3.7028 7.36914 3.65039 7.22786 3.65039 7.08203C3.65039 6.93164 3.70052 6.80404 3.80078 6.69922C3.9056 6.5944 4.0332 6.54199 4.18359 6.54199C4.2793 6.54199 4.36589 6.56022 4.44336 6.59668C4.52083 6.63314 4.59831 6.7015 4.67578 6.80176L5.91309 8.3877L8.52441 4.19727C8.65658 3.99219 8.81836 3.88965 9.00977 3.88965C9.15104 3.88965 9.27865 3.93522 9.39258 4.02637C9.50651 4.11751 9.56348 4.23828 9.56348 4.38867C9.56348 4.46615 9.54753 4.54134 9.51562 4.61426C9.48372 4.68717 9.44727 4.75553 9.40625 4.81934L6.48047 9.39941C6.34831 9.61361 6.16602 9.7207 5.93359 9.7207Z" fill="currentColor"/>
</svg>
