<svg width="14" height="14" viewBox="0 0 16 16" fill="none" xmlns="http://www.w3.org/2000/svg">
<g id="icon container">
<path id="Look up" d="M2.98535 12.7607C2.86263 12.7607 2.76107 12.7354 2.68066 12.6846C2.60026 12.638 2.53678 12.5745 2.49023 12.4941C2.44792 12.418 2.41829 12.3354 2.40137 12.2466C2.38021 12.1366 2.3654 12.0075 2.35693 11.8594C2.34847 11.7113 2.34424 11.5505 2.34424 11.377C2.34424 9.94238 2.65527 8.89502 3.27734 8.23486C3.90365 7.57471 4.91927 7.24463 6.32422 7.24463H10.4058L11.853 7.3335L9.96143 5.60059L8.62842 4.24854C8.56917 4.18929 8.52474 4.1237 8.49512 4.05176C8.46549 3.97982 8.45068 3.90153 8.45068 3.81689C8.45068 3.64762 8.5057 3.51009 8.61572 3.4043C8.72998 3.29427 8.87174 3.23926 9.04102 3.23926C9.20605 3.23926 9.35417 3.30697 9.48535 3.44238L13.4463 7.39697C13.5859 7.52393 13.6558 7.67415 13.6558 7.84766C13.6558 8.02116 13.5859 8.17139 13.4463 8.29834L9.479 12.2656C9.35205 12.3883 9.20605 12.4497 9.04102 12.4497C8.87174 12.4497 8.72998 12.3968 8.61572 12.291C8.5057 12.181 8.45068 12.0435 8.45068 11.8784C8.45068 11.7938 8.46549 11.7155 8.49512 11.6436C8.52474 11.5674 8.56917 11.5018 8.62842 11.4468L9.96143 10.0947L11.8594 8.35547L10.4058 8.44434H6.39404C5.6958 8.44434 5.13932 8.5459 4.72461 8.74902C4.3099 8.95215 4.01156 9.27376 3.82959 9.71387C3.64762 10.1497 3.55664 10.7189 3.55664 11.4214C3.55664 11.578 3.56087 11.7134 3.56934 11.8276C3.5778 11.9419 3.58203 12.054 3.58203 12.1641C3.58203 12.3418 3.5249 12.4857 3.41064 12.5957C3.30062 12.7057 3.15885 12.7607 2.98535 12.7607Z" fill="currentColor"/>
</g>
</svg>
