<svg width="14" height="14" viewBox="0 0 16 16" fill="none" xmlns="http://www.w3.org/2000/svg">
<g id="icon container">
<path id="&#244;&#128;&#133;&#136;" d="M1.5 9.33462C1.5 8.47872 1.66588 7.68085 1.99764 6.94101C2.33451 6.19632 2.79643 5.54352 3.38339 4.98259C3.97546 4.42166 4.66196 3.98404 5.44287 3.66973C6.2289 3.35058 7.07106 3.19101 7.96938 3.19101C8.14291 3.19101 8.3139 3.20068 8.48233 3.22002C8.65077 3.23453 8.80644 3.25387 8.94935 3.27805L7.28033 1.71857C7.21398 1.65087 7.16294 1.57834 7.12721 1.50097C7.09148 1.41876 7.07362 1.3293 7.07362 1.23259C7.07362 1.0295 7.14507 0.857834 7.28799 0.717602C7.4309 0.572534 7.60444 0.5 7.8086 0.5C8.02807 0.5 8.20416 0.572534 8.33687 0.717602L11.3074 3.57544C11.4707 3.72534 11.5524 3.90184 11.5524 4.10493C11.5524 4.30803 11.4707 4.48694 11.3074 4.64168L8.33687 7.4705C8.20416 7.6059 8.03062 7.6736 7.81625 7.6736C7.60699 7.6736 7.4309 7.6059 7.28799 7.4705C7.14507 7.33027 7.07362 7.16102 7.07362 6.96277C7.07362 6.86605 7.09148 6.77901 7.12721 6.70164C7.16294 6.61944 7.21398 6.54449 7.28033 6.47679L9.17138 4.70696C8.99274 4.67311 8.80133 4.64894 8.59717 4.63443C8.39812 4.61509 8.18885 4.60542 7.96938 4.60542C7.28033 4.60542 6.63722 4.72631 6.04005 4.96808C5.44287 5.20986 4.91716 5.54594 4.4629 5.97631C4.01374 6.40667 3.66411 6.90957 3.41402 7.48501C3.16392 8.05561 3.03887 8.67215 3.03887 9.33462C3.03887 9.98743 3.16392 10.5991 3.41402 11.1697C3.66922 11.7403 4.02395 12.2432 4.47821 12.6784C4.93757 13.1088 5.46584 13.4449 6.06302 13.6867C6.66529 13.9284 7.31095 14.0493 8 14.0493C8.69415 14.0493 9.33981 13.9284 9.93698 13.6867C10.5393 13.4449 11.0675 13.1088 11.5218 12.6784C11.9761 12.2432 12.3308 11.7403 12.586 11.1697C12.8463 10.5991 12.9764 9.98743 12.9764 9.33462C12.9764 9.11219 13.0453 8.93327 13.1832 8.79787C13.321 8.65764 13.4996 8.58752 13.7191 8.58752C13.9488 8.58752 14.1351 8.65764 14.278 8.79787C14.426 8.93327 14.5 9.11219 14.5 9.33462C14.5 10.1905 14.3316 10.9908 13.9947 11.7355C13.6629 12.4753 13.1985 13.1281 12.6013 13.6939C12.0041 14.2597 11.3125 14.7021 10.5265 15.0213C9.74558 15.3404 8.90342 15.5 8 15.5C7.10169 15.5 6.25952 15.3404 5.4735 15.0213C4.68748 14.7021 3.99588 14.2597 3.3987 13.6939C2.80664 13.1281 2.34217 12.4753 2.0053 11.7355C1.66843 10.9908 1.5 10.1905 1.5 9.33462Z" fill="currentColor"/>
</g>
</svg>
