<svg width="14" height="14" viewBox="0 0 16 16" fill="none" xmlns="http://www.w3.org/2000/svg">
<g id="icon container">
<path id="Union" d="M6.11426 8.99305C7.04933 8.99321 7.84876 9.56829 8.18164 10.3837H14.2061C14.6445 10.3839 14.9999 10.7391 15 11.1776C15 11.6162 14.6446 11.9714 14.2061 11.9716H8.21777C7.91088 12.8387 7.08648 13.4607 6.11426 13.4608C5.14184 13.4608 4.31668 12.8388 4.00977 11.9716H1.79395C1.35543 11.9714 1 11.6162 1 11.1776C1.00006 10.7391 1.35546 10.3839 1.79395 10.3837H4.0459C4.37881 9.56815 5.179 8.99305 6.11426 8.99305ZM9.78711 2.53895C10.6838 2.53905 11.455 3.06849 11.8105 3.83094H14.2061C14.6446 3.83115 15 4.18632 15 4.62489C15 5.06343 14.6446 5.41863 14.2061 5.41883H11.9258C11.6487 6.33764 10.7962 7.00661 9.78711 7.00672C8.77793 7.00672 7.92556 6.33765 7.64844 5.41883H1.79395C1.35544 5.41863 1.00003 5.06343 1 4.62489C1 4.18632 1.35543 3.83115 1.79395 3.83094H7.76367C8.11928 3.06853 8.89034 2.53895 9.78711 2.53895Z" fill="currentColor"/>
</g>
</svg>
