<svg width="14" height="14" viewBox="0 0 16 16" fill="none" xmlns="http://www.w3.org/2000/svg">
<g id="icon container">
<path id="&#244;&#128;&#136;&#146;" d="M5.33398 3.94702V2.82349C5.33398 2.38338 5.46729 2.03849 5.73389 1.78882C6.00472 1.53491 6.37288 1.40796 6.83838 1.40796H9.14258C9.6123 1.40796 9.98047 1.53491 10.2471 1.78882C10.5179 2.03849 10.6533 2.38338 10.6533 2.82349V3.94702H9.66943V2.87427C9.66943 2.70923 9.61654 2.57804 9.51074 2.48071C9.40918 2.38338 9.26953 2.33472 9.0918 2.33472H6.89551C6.71777 2.33472 6.57601 2.38338 6.47021 2.48071C6.36865 2.57804 6.31787 2.70923 6.31787 2.87427V3.94702H5.33398ZM2.62354 4.58813C2.51351 4.58813 2.41829 4.54793 2.33789 4.46753C2.25749 4.38713 2.21729 4.28979 2.21729 4.17554C2.21729 4.06128 2.25749 3.96395 2.33789 3.88354C2.41829 3.80314 2.51351 3.76294 2.62354 3.76294H13.3701C13.4844 3.76294 13.5817 3.80314 13.6621 3.88354C13.7425 3.96395 13.7827 4.06128 13.7827 4.17554C13.7827 4.28979 13.7425 4.38713 13.6621 4.46753C13.5817 4.54793 13.4844 4.58813 13.3701 4.58813H2.62354ZM12.4497 4.46753L12.0435 13.4431C12.0265 13.8028 11.9102 14.0842 11.6943 14.2874C11.4785 14.4905 11.1886 14.592 10.8247 14.592H5.16895C4.80924 14.592 4.52148 14.4905 4.30566 14.2874C4.09408 14.0842 3.97982 13.8028 3.96289 13.4431L3.55664 4.46753H12.4497ZM6.1084 12.8718C6.21419 12.8718 6.29883 12.8422 6.3623 12.783C6.42578 12.7195 6.4554 12.6391 6.45117 12.5417L6.26709 5.94019C6.26286 5.83862 6.229 5.75822 6.16553 5.69897C6.10205 5.63973 6.02165 5.61011 5.92432 5.61011C5.81852 5.61011 5.73389 5.64185 5.67041 5.70532C5.60693 5.76457 5.57731 5.84285 5.58154 5.94019L5.76562 12.5481C5.76986 12.6454 5.80371 12.7237 5.86719 12.783C5.93066 12.8422 6.01107 12.8718 6.1084 12.8718ZM8 12.8718C8.10579 12.8718 8.19043 12.8422 8.25391 12.783C8.32161 12.7195 8.35547 12.6391 8.35547 12.5417V5.94019C8.35547 5.84285 8.32161 5.76457 8.25391 5.70532C8.19043 5.64185 8.10579 5.61011 8 5.61011C7.89421 5.61011 7.80745 5.64185 7.73975 5.70532C7.67627 5.76457 7.64453 5.84285 7.64453 5.94019V12.5417C7.64453 12.6391 7.67627 12.7195 7.73975 12.783C7.80745 12.8422 7.89421 12.8718 8 12.8718ZM9.88525 12.8718C9.98682 12.8718 10.0693 12.8422 10.1328 12.783C10.1963 12.7237 10.228 12.6475 10.228 12.5544L10.4185 5.94019C10.4227 5.84285 10.3931 5.76457 10.3296 5.70532C10.2661 5.64185 10.1815 5.61011 10.0757 5.61011C9.97835 5.61011 9.89795 5.63973 9.83447 5.69897C9.771 5.75822 9.73714 5.83862 9.73291 5.94019L9.54248 12.5481C9.54248 12.6412 9.5721 12.7195 9.63135 12.783C9.69482 12.8422 9.77946 12.8718 9.88525 12.8718Z" fill="currentColor"/>
</g>
</svg>
